<svg xmlns="http://www.w3.org/2000/svg" viewBox="0 0 677.16 209.00"><path d="M 56.786,173.384 A 72.0,72.0 0 0 1 122.972,46.243" fill="none" stroke="#0E9E6E" stroke-width="12.0" stroke-linecap="round"/><path d="M 154.249,70.679 A 72.0,72.0 0 0 1 135.214,173.384" fill="none" stroke="#0E9E6E" stroke-width="12.0" stroke-linecap="round"/><path d="M 156.328,56.263 L 144.174,60.110 L 140.328,72.263 L 136.481,60.110 L 124.328,56.263 L 136.481,52.417 L 140.328,40.263 L 144.174,52.417 Z" fill="#0E9E6E"/><path d="M 52.00,151.00 L 78.00,113.00 L 99.00,133.00 L 123.00,82.00 L 142.00,116.00" fill="none" stroke="#0E9E6E" stroke-width="12.0" stroke-linejoin="round" stroke-linecap="round"/><path d="M68 0V706H180L458 273H401L678 706H791V0H634V441L662 434L481 152H377L197 434L224 441V0Z" transform="translate(214.000,145.200) scale(0.09200,-0.09200)" fill="#0C1512"/><path d="M288 -11Q213 -11 152.5 22.5Q92 56 57.0 114.0Q22 172 22 244Q22 316 57.0 373.0Q92 430 152.0 463.5Q212 497 288 497Q364 497 424.0 464.0Q484 431 519.0 373.5Q554 316 554 244Q554 172 519.0 114.0Q484 56 424.0 22.5Q364 -11 288 -11ZM288 128Q321 128 346.0 142.5Q371 157 384.5 183.5Q398 210 398 244Q398 278 384.0 303.5Q370 329 345.5 343.5Q321 358 288 358Q256 358 231.0 343.5Q206 329 192.0 303.0Q178 277 178 243Q178 210 192.0 183.5Q206 157 231.0 142.5Q256 128 288 128Z" transform="translate(293.436,145.200) scale(0.09200,-0.09200)" fill="#0C1512"/><path d="M288 -11Q213 -11 152.5 22.5Q92 56 57.0 114.0Q22 172 22 244Q22 316 57.0 373.0Q92 430 152.0 463.5Q212 497 288 497Q364 497 424.0 464.0Q484 431 519.0 373.5Q554 316 554 244Q554 172 519.0 114.0Q484 56 424.0 22.5Q364 -11 288 -11ZM288 128Q321 128 346.0 142.5Q371 157 384.5 183.5Q398 210 398 244Q398 278 384.0 303.5Q370 329 345.5 343.5Q321 358 288 358Q256 358 231.0 343.5Q206 329 192.0 303.0Q178 277 178 243Q178 210 192.0 183.5Q206 157 231.0 142.5Q256 128 288 128Z" transform="translate(346.928,145.200) scale(0.09200,-0.09200)" fill="#0C1512"/><path d="M54 0V726H207V0Z" transform="translate(400.420,145.200) scale(0.09200,-0.09200)" fill="#0C1512"/><path d="M257 -10Q190 -10 137.5 23.0Q85 56 54.5 113.0Q24 170 24 243Q24 316 54.5 373.0Q85 430 137.5 463.0Q190 496 257 496Q306 496 345.5 477.0Q385 458 410.0 424.5Q435 391 438 348V138Q435 95 410.5 61.5Q386 28 346.0 9.0Q306 -10 257 -10ZM288 128Q337 128 367.0 160.5Q397 193 397 243Q397 277 383.5 303.0Q370 329 345.5 343.5Q321 358 289 358Q257 358 232.5 343.5Q208 329 193.5 303.0Q179 277 179 243Q179 210 193.0 184.0Q207 158 232.0 143.0Q257 128 288 128ZM391 0V131L414 249L391 367V486H541V0Z" transform="translate(424.932,145.200) scale(0.09200,-0.09200)" fill="#0C1512"/><path d="M68 0V706H225V0ZM505 0V706H663V0ZM162 295V431H557V295Z" transform="translate(480.172,145.200) scale(0.09200,-0.09200)" fill="#0E9E6E"/><path d="M270 -11Q203 -11 151.5 16.5Q100 44 71.0 92.5Q42 141 42 204V486H195V206Q195 181 203.5 163.0Q212 145 229.0 135.0Q246 125 270 125Q304 125 324.0 146.5Q344 168 344 206V486H497V205Q497 141 468.0 92.5Q439 44 388.0 16.5Q337 -11 270 -11Z" transform="translate(547.832,145.200) scale(0.09200,-0.09200)" fill="#0E9E6E"/><path d="M334 -10Q285 -10 244.0 10.5Q203 31 177.0 65.5Q151 100 147 143V348Q151 391 177.0 424.5Q203 458 244.0 477.0Q285 496 334 496Q403 496 456.5 463.0Q510 430 540.5 373.0Q571 316 571 243Q571 170 540.5 113.0Q510 56 456.5 23.0Q403 -10 334 -10ZM54 0V726H207V367L182 249L205 131V0ZM307 128Q339 128 363.5 143.0Q388 158 402.0 184.0Q416 210 416 243Q416 277 402.0 303.0Q388 329 363.5 343.5Q339 358 307 358Q275 358 250.0 343.5Q225 329 211.5 303.0Q198 277 198 243Q198 209 212.0 183.0Q226 157 250.5 142.5Q275 128 307 128Z" transform="translate(597.920,145.200) scale(0.09200,-0.09200)" fill="#0E9E6E"/></svg>